<svg width="159" height="161" viewBox="0 0 159 161" fill="none" xmlns="http://www.w3.org/2000/svg">
<path d="M96.8203 147.27V151.346C96.8201 151.701 96.801 152.056 96.7632 152.41C96.5 154.753 95.3828 156.918 93.625 158.49C91.8671 160.062 89.5918 160.932 87.2334 160.933H72.531C71.2713 160.935 70.0235 160.689 68.8592 160.208C67.6949 159.727 66.637 159.021 65.7462 158.131C64.8555 157.24 64.1494 156.182 63.6686 155.018C63.1877 153.853 62.9415 152.605 62.9441 151.346V147.27C64.2519 147.852 65.6676 148.151 67.099 148.149H92.6655C94.0968 148.151 95.5125 147.852 96.8203 147.27Z" fill="#C3C9D7"/>
<path d="M79.4041 21.0271C79.0891 21.0274 78.7771 20.9655 78.486 20.8451C78.1948 20.7247 77.9303 20.548 77.7076 20.3252C77.4848 20.1025 77.3081 19.838 77.1877 19.5469C77.0673 19.2557 77.0054 18.9437 77.0057 18.6287V2.47098C76.996 2.15006 77.0508 1.83045 77.1669 1.5311C77.283 1.23176 77.4581 0.958776 77.6816 0.728334C77.9052 0.497893 78.1728 0.314686 78.4684 0.189576C78.7641 0.064466 79.0819 0 79.403 0C79.7241 0 80.0419 0.064466 80.3376 0.189576C80.6333 0.314686 80.9008 0.497893 81.1244 0.728334C81.348 0.958776 81.523 1.23176 81.6391 1.5311C81.7552 1.83045 81.81 2.15006 81.8003 2.47098V18.6287C81.8006 18.9435 81.7388 19.2554 81.6185 19.5463C81.4982 19.8373 81.3218 20.1017 81.0992 20.3245C80.8767 20.5472 80.6125 20.7239 80.3216 20.8445C80.0307 20.965 79.719 21.0271 79.4041 21.0271Z" fill="#FFE7C9"/>
<path d="M36.3777 38.8487C36.0627 38.8489 35.7509 38.7868 35.46 38.6661C35.1691 38.5454 34.905 38.3684 34.6828 38.1452L23.2515 26.7139C23.0203 26.4932 22.8355 26.2286 22.708 25.9355C22.5806 25.6424 22.513 25.3268 22.5092 25.0073C22.5054 24.6877 22.5656 24.3706 22.6861 24.0746C22.8066 23.7786 22.985 23.5096 23.211 23.2836C23.4369 23.0575 23.7057 22.8789 24.0016 22.7582C24.2975 22.6375 24.6146 22.5771 24.9342 22.5807C25.2537 22.5843 25.5694 22.6517 25.8625 22.779C26.1557 22.9062 26.4205 23.0908 26.6413 23.3219L38.0726 34.7532C38.4076 35.0886 38.6357 35.5158 38.7281 35.9807C38.8205 36.4457 38.773 36.9276 38.5916 37.3656C38.4102 37.8036 38.1031 38.1781 37.7091 38.4416C37.3151 38.7052 36.8517 38.8461 36.3777 38.8465" fill="#FFE7C9"/>
<path d="M18.5561 81.8719H2.39618C1.76067 81.8719 1.15119 81.6195 0.701824 81.1701C0.252454 80.7208 0 80.1113 0 79.4758C0 78.8403 0.252454 78.2308 0.701824 77.7814C1.15119 77.332 1.76067 77.0796 2.39618 77.0796H18.5561C19.1916 77.0796 19.8011 77.332 20.2504 77.7814C20.6998 78.2308 20.9523 78.8403 20.9523 79.4758C20.9523 80.1113 20.6998 80.7208 20.2504 81.1701C19.8011 81.6195 19.1916 81.8719 18.5561 81.8719Z" fill="#FFE7C9"/>
<path d="M24.9508 136.325C24.4768 136.324 24.0134 136.184 23.6194 135.92C23.2254 135.656 22.9183 135.282 22.7369 134.844C22.5555 134.406 22.508 133.924 22.6004 133.459C22.6928 132.994 22.9209 132.567 23.2559 132.232L34.6872 120.8C35.1367 120.351 35.7464 120.098 36.3821 120.098C37.0178 120.098 37.6275 120.351 38.077 120.8C38.5266 121.25 38.7791 121.859 38.7791 122.495C38.7791 123.131 38.5266 123.741 38.077 124.19L26.6457 135.621C26.4235 135.844 26.1594 136.022 25.8685 136.142C25.5776 136.263 25.2658 136.325 24.9508 136.325Z" fill="#FFE7C9"/>
<path d="M133.854 136.325C133.539 136.325 133.227 136.263 132.936 136.142C132.645 136.022 132.381 135.844 132.159 135.621L120.727 124.19C120.505 123.967 120.328 123.703 120.208 123.412C120.087 123.122 120.025 122.81 120.025 122.495C120.025 122.18 120.087 121.869 120.208 121.578C120.328 121.287 120.505 121.023 120.727 120.8C120.95 120.578 121.214 120.401 121.505 120.281C121.796 120.16 122.108 120.098 122.422 120.098C122.737 120.098 123.049 120.16 123.34 120.281C123.63 120.401 123.895 120.578 124.117 120.8L135.549 132.232C135.884 132.567 136.112 132.994 136.204 133.459C136.296 133.924 136.249 134.406 136.068 134.844C135.886 135.282 135.579 135.656 135.185 135.92C134.791 136.184 134.328 136.324 133.854 136.325Z" fill="#FFE7C9"/>
<path d="M156.409 81.8719H140.253C139.618 81.8719 139.008 81.6195 138.559 81.1701C138.109 80.7208 137.857 80.1113 137.857 79.4758C137.857 78.8403 138.109 78.2308 138.559 77.7814C139.008 77.332 139.618 77.0796 140.253 77.0796H156.413C157.049 77.0796 157.658 77.332 158.107 77.7814C158.557 78.2308 158.809 78.8403 158.809 79.4758C158.809 80.1113 158.557 80.7208 158.107 81.1701C157.658 81.6195 157.049 81.8719 156.413 81.8719" fill="#FFE7C9"/>
<path d="M122.427 38.8494C121.953 38.849 121.49 38.7081 121.095 38.4446C120.701 38.181 120.394 37.8066 120.213 37.3686C120.032 36.9306 119.984 36.4486 120.076 35.9837C120.169 35.5187 120.397 35.0915 120.732 34.7561L132.163 23.3248C132.384 23.0937 132.649 22.9092 132.942 22.7819C133.235 22.6546 133.551 22.5872 133.87 22.5836C134.19 22.5801 134.507 22.6404 134.803 22.7611C135.099 22.8818 135.368 23.0605 135.594 23.2865C135.82 23.5126 135.998 23.7815 136.119 24.0775C136.239 24.3735 136.299 24.6906 136.295 25.0102C136.292 25.3298 136.224 25.6454 136.097 25.9384C135.969 26.2315 135.784 26.4962 135.553 26.7168L124.122 38.1481C123.9 38.3713 123.635 38.5483 123.345 38.669C123.054 38.7898 122.742 38.8518 122.427 38.8516" fill="#FFE7C9"/>
<path d="M79.8822 144.954C79.8822 144.954 64.2125 147.836 62.9441 147.271V151.346C62.9443 151.702 62.9634 152.057 63.0013 152.41C63.2644 154.754 64.3816 156.918 66.1395 158.491C67.8973 160.063 70.1727 160.932 72.531 160.933H76.6858C74.7057 160.933 72.7741 160.32 71.1561 159.179C69.538 158.038 68.3128 156.423 67.6485 154.558C67.596 154.413 67.5792 154.257 67.5994 154.105C67.6196 153.952 67.6762 153.806 67.7646 153.679C67.8529 153.553 67.9704 153.449 68.107 153.378C68.2437 153.306 68.3955 153.268 68.5498 153.268H92.6655C94.0756 153.271 95.471 152.981 96.7632 152.417C96.801 152.064 96.8201 151.708 96.8203 151.353V147.271C95.5519 147.836 79.8822 144.954 79.8822 144.954Z" fill="#9DA3B1"/>
<path d="M102.892 137.923C102.894 139.266 102.63 140.597 102.116 141.838C101.603 143.079 100.85 144.207 99.8997 145.157C98.9499 146.107 97.822 146.86 96.5807 147.374C95.3395 147.887 94.0091 148.151 92.6658 148.15H67.0993C65.756 148.151 64.4256 147.887 63.1843 147.374C61.9431 146.86 60.8152 146.107 59.8654 145.157C58.9155 144.207 58.1623 143.079 57.6487 141.838C57.1352 140.597 56.8715 139.266 56.8726 137.923C56.8726 137.923 56.721 122.974 56.6924 122.594V122.583L79.8825 119.387L102.807 122.583L102.892 137.923Z" fill="#C3C9D7"/>
<path d="M72.5313 148.15H67.0993C65.756 148.151 64.4256 147.887 63.1843 147.374C61.9431 146.86 60.8152 146.107 59.8654 145.157C58.9155 144.207 58.1623 143.08 57.6487 141.838C57.1352 140.597 56.8715 139.267 56.8726 137.923C56.8726 137.923 56.721 122.975 56.6924 122.594V122.583H62.1266V122.594C62.1552 122.986 62.3047 137.923 62.3047 137.923C62.3036 139.267 62.5673 140.597 63.0808 141.838C63.5943 143.08 64.3476 144.207 65.2974 145.157C66.2473 146.107 67.3751 146.86 68.6164 147.374C69.8577 147.887 71.188 148.151 72.5313 148.15Z" fill="#9DA3B1"/>
<path d="M102.893 137.762H94.7481C94.1249 137.743 93.5335 137.482 93.0994 137.035C92.6652 136.587 92.4224 135.988 92.4224 135.365C92.4224 134.741 92.6652 134.142 93.0994 133.695C93.5335 133.247 94.1249 132.986 94.7481 132.967H102.871L102.884 135.366L102.893 137.762Z" fill="#9DA3B1"/>
<path d="M85.9545 135.366C85.9545 136.001 85.7021 136.611 85.2527 137.06C84.8033 137.509 84.1938 137.762 83.5583 137.762H56.8684L56.8135 132.967H83.5583C84.194 132.968 84.8035 133.221 85.2528 133.671C85.7021 134.12 85.9545 134.73 85.9545 135.366Z" fill="#9DA3B1"/>
<path d="M79.445 28.9962C54.7622 28.6159 34.0056 50.1287 34.4496 74.6313C34.4189 86.6053 39.0741 98.1162 47.4198 106.703C52.1462 111.563 56.2372 116.057 56.6901 122.583L102.804 122.658C103.064 115.942 106.882 111.403 111.64 106.434C119.828 97.8748 124.385 86.4771 124.355 74.6313C124.355 49.4406 104.251 29.0204 79.4428 28.9962" fill="#FAD207"/>
<path d="M102.807 122.648L56.6929 122.573C56.24 116.046 52.149 111.553 47.4226 106.692C39.0769 98.1059 34.4217 86.595 34.4524 74.621C34.0128 50.1185 54.765 28.6056 79.4478 28.9859C80.2436 28.9859 81.035 29.0101 81.822 29.0497C58.5043 30.4082 39.458 51.1473 39.8823 74.6298C39.8516 86.6038 44.5067 98.1147 52.8524 106.701C57.5788 111.562 61.6699 116.055 62.125 122.582L102.807 122.648Z" fill="#FAA515"/>
<path d="M80.5312 97.4726C80.0586 98.0811 79.4584 98.5786 78.7729 98.9303C78.0874 99.282 77.3331 99.4793 76.5632 99.5083H76.3654C75.6284 99.508 74.8996 99.3533 74.226 99.0542C73.5524 98.7551 72.949 98.3182 72.4545 97.7716L57.4334 81.1522C56.9422 80.6432 56.5585 80.0407 56.3049 79.3804C56.0513 78.7201 55.933 78.0156 55.9572 77.3087C55.9813 76.6018 56.1474 75.9069 56.4454 75.2655C56.7435 74.6241 57.1675 74.0491 57.6922 73.5748C58.2169 73.1005 58.8317 72.7365 59.4999 72.5046C60.1681 72.2726 60.8761 72.1774 61.5818 72.2245C62.2875 72.2717 62.9766 72.4603 63.608 72.7791C64.2394 73.0978 64.8003 73.5403 65.2572 74.0802L76.062 86.0281L93.2969 63.825C93.7115 63.2507 94.2376 62.7657 94.8436 62.399C95.4497 62.0324 96.1234 61.7915 96.8246 61.6908C97.5258 61.5901 98.24 61.6316 98.9248 61.8129C99.6096 61.9942 100.251 62.3115 100.81 62.7459C101.37 63.1804 101.836 63.723 102.181 64.3415C102.527 64.96 102.744 65.6418 102.82 66.346C102.896 67.0503 102.83 67.7627 102.625 68.4407C102.42 69.1187 102.08 69.7485 101.626 70.2925L80.5312 97.4726Z" fill="#FAA515"/>
</svg>
